<svg width="50" height="50" viewBox="0 0 50 50" fill="none" xmlns="http://www.w3.org/2000/svg">
<g clip-path="url(#clip0_484_2)">
<path d="M49.9736 25.4675C49.9736 23.4191 49.8035 21.9242 49.4354 20.374H25.498V29.6198H39.5487C39.2656 31.9175 37.7358 35.3778 34.3364 37.703L34.2887 38.0126L41.8573 43.7422L42.3817 43.7933C47.1974 39.4471 49.9736 33.0525 49.9736 25.4675Z" fill="#4285F4"/>
<path d="M25.4977 49.8284C32.3813 49.8284 38.1602 47.6137 42.3813 43.7937L34.336 37.7034C32.1831 39.1706 29.2935 40.1949 25.4977 40.1949C18.7556 40.1949 13.0333 35.8489 10.9935 29.8418L10.6945 29.8666L2.8246 35.8183L2.72168 36.0979C6.91422 44.2365 15.526 49.8284 25.4977 49.8284Z" fill="#34A853"/>
<path d="M10.9942 29.8418C10.456 28.2916 10.1445 26.6306 10.1445 24.9143C10.1445 23.1979 10.456 21.537 10.9659 19.9869L10.9516 19.6567L2.98309 13.6094L2.72238 13.7306C0.994429 17.1078 0.00292969 20.9004 0.00292969 24.9143C0.00292969 28.9283 0.994429 32.7206 2.72238 36.0979L10.9942 29.8418Z" fill="#FBBC05"/>
<path d="M25.4976 9.6334C30.285 9.6334 33.5144 11.6542 35.3558 13.3429L42.5512 6.47767C38.1321 2.46374 32.3813 0 25.4976 0C15.526 0 6.91422 5.59179 2.72168 13.7303L10.9652 19.9866C13.0333 13.9796 18.7556 9.6334 25.4976 9.6334Z" fill="#EB4335"/>
</g>
<defs>
<clipPath id="clip0_484_2">
<rect width="50" height="50" fill="white"/>
</clipPath>
</defs>
</svg>
