<svg width="24" height="23" viewBox="0 0 24 23" fill="none" xmlns="http://www.w3.org/2000/svg">
<g clip-path="url(#clip0_535_85)">
<path d="M8.15855 0.456171L0.480469 1.43735V22.6788L8.16431 20.715L15.8131 22.5477L23.5205 21.5624V0.394531L15.8385 1.37617L8.15855 0.456171ZM8.64047 1.44103L15.3605 2.24603V21.4906L8.64047 19.8806V1.44103ZM1.44047 2.24235L7.68047 1.44517V19.8866L1.44047 21.4809V2.24235ZM22.5605 20.7574L16.3205 21.5545V2.24235L22.5605 1.44517V20.7574Z" fill="white"/>
<path d="M17.2799 6.43967H18.2399V7.35967H17.2799V6.43967ZM19.1999 7.81967H20.1599V8.73967H19.1999V7.81967ZM19.1999 10.1197H20.1599V11.0397H19.1999V10.1197ZM19.1999 12.4197H20.1599V13.3397H19.1999V12.4197ZM17.2799 13.7997H18.2399V14.7197H17.2799V13.7997ZM12.9599 14.2597H13.9199V15.1797H12.9599V14.2597ZM10.5599 14.7197H11.5199V15.6397H10.5599V14.7197ZM5.75991 16.5597H6.71991V17.4797H5.75991V16.5597ZM4.46055 13.0145L3.59991 13.8392L2.73927 13.0145L2.06055 13.6649L2.92119 14.4897L2.06055 15.3145L2.73927 15.9649L3.59991 15.1401L4.46055 15.9649L5.13927 15.3145L4.27863 14.4897L5.13927 13.6649L4.46055 13.0145ZM13.2993 6.11445L12.4386 5.28967L13.2993 4.46489L12.6205 3.81445L11.7599 4.63923L10.8993 3.81445L10.2205 4.46489L11.0812 5.28967L10.2205 6.11445L10.8993 6.76489L11.7599 5.94011L12.6205 6.76489L13.2993 6.11445Z" fill="white"/>
</g>
<defs>
<clipPath id="clip0_535_85">
<rect width="24" height="23" fill="white"/>
</clipPath>
</defs>
</svg>
