<svg width="35" height="35" viewBox="0 0 35 35" fill="none" xmlns="http://www.w3.org/2000/svg">
<path d="M25.2008 9.79959H26.6008V11.1996H25.2008V9.79959ZM28.0008 11.8996H29.4008V13.2996H28.0008V11.8996ZM28.0008 15.3996H29.4008V16.7996H28.0008V15.3996ZM28.0008 18.8996H29.4008V20.2996H28.0008V18.8996ZM25.2008 20.9996H26.6008V22.3996H25.2008V20.9996ZM18.9008 21.6996H20.3008V23.0996H18.9008V21.6996ZM15.4008 22.3996H16.8008V23.7996H15.4008V22.3996ZM8.40076 25.1996H9.80076V26.5996H8.40076V25.1996ZM6.50586 19.8047L5.25076 21.0598L3.99566 19.8047L3.00586 20.7945L4.26096 22.0496L3.00586 23.3047L3.99566 24.2945L5.25076 23.0394L6.50586 24.2945L7.49566 23.3047L6.24056 22.0496L7.49566 20.7945L6.50586 19.8047ZM19.3957 9.30469L18.1406 8.04959L19.3957 6.79449L18.4059 5.80469L17.1508 7.05979L15.8957 5.80469L14.9059 6.79449L16.161 8.04959L14.9059 9.30469L15.8957 10.2945L17.1508 9.03939L18.4059 10.2945L19.3957 9.30469Z" fill="white"/>
</svg>
