<svg width="86" height="30" viewBox="0 0 86 30" fill="none" xmlns="http://www.w3.org/2000/svg">
<mask id="path-1-outside-1_252_145" maskUnits="userSpaceOnUse" x="-0.799805" y="-0.727539" width="86" height="31" fill="black">
<rect fill="white" x="-0.799805" y="-0.727539" width="86" height="31"/>
<path d="M12.1162 27.2365C11.2762 27.2365 10.6282 27.0205 10.1722 26.5885C9.7162 26.1565 9.4882 25.5685 9.4882 24.8245L9.3802 15.3205C9.0442 15.3205 8.4082 14.8645 7.4722 13.9525C6.5602 13.0165 5.8402 12.1525 5.3122 11.3605C4.8562 10.6885 4.3282 9.76446 3.7282 8.58846C3.1282 7.41246 2.5882 6.21246 2.1082 4.98846C2.0362 4.79646 2.0002 4.60446 2.0002 4.41246C2.0002 3.81246 2.2882 3.26046 2.8642 2.75646C3.4642 2.25246 4.1722 2.00046 4.9882 2.00046C5.5642 2.00046 6.0442 2.15646 6.4282 2.46846C6.8122 2.75646 7.1602 3.22446 7.4722 3.87246C8.6002 6.20046 9.5002 7.94046 10.1722 9.09246C11.1322 10.6765 11.7802 11.4685 12.1162 11.4685C12.4282 11.4685 13.0162 10.6765 13.8802 9.09246L16.6882 3.72846C17.0002 3.15246 17.3002 2.73246 17.5882 2.46846C17.9002 2.20446 18.3802 2.07246 19.0282 2.07246C19.9162 2.07246 20.6482 2.27646 21.2242 2.68446C21.8002 3.06846 22.0882 3.60846 22.0882 4.30446C22.0882 4.54446 22.0042 4.89246 21.8362 5.34846C21.6202 5.90046 21.1402 6.90846 20.3962 8.37246C19.6762 9.81246 19.1002 10.8565 18.6682 11.5045C18.0922 12.3925 17.3482 13.2565 16.4362 14.0965C15.5482 14.9125 14.9362 15.3205 14.6002 15.3205L14.7082 24.7165C14.7082 25.5085 14.4802 26.1325 14.0242 26.5885C13.5922 27.0205 12.9562 27.2365 12.1162 27.2365ZM35.238 27.6325C33.054 27.6325 31.206 27.2245 29.694 26.4085C28.206 25.5925 27.09 24.4645 26.346 23.0245C25.602 21.5845 25.23 19.9525 25.23 18.1285C25.23 16.3045 25.65 14.6845 26.49 13.2685C27.354 11.8285 28.518 10.7125 29.982 9.92046C31.47 9.12846 33.126 8.73246 34.95 8.73246C36.582 8.73246 38.07 9.05646 39.414 9.70446C40.782 10.3525 41.85 11.2885 42.618 12.5125C43.41 13.7125 43.806 15.1285 43.806 16.7605C43.806 17.7925 43.614 18.5365 43.23 18.9925C42.87 19.4245 42.246 19.6405 41.358 19.6405H29.73C29.73 20.2165 29.934 20.8045 30.342 21.4045C30.75 21.9805 31.362 22.4725 32.178 22.8805C32.994 23.2885 33.966 23.4925 35.094 23.4925C36.102 23.4925 36.894 23.3485 37.47 23.0605C38.046 22.7485 38.646 22.2925 39.27 21.6925C39.726 21.2845 40.194 21.0805 40.674 21.0805C41.226 21.0805 41.742 21.2965 42.222 21.7285C42.702 22.1365 42.942 22.6045 42.942 23.1325C42.942 23.5645 42.798 23.9845 42.51 24.3925C42.006 25.1845 41.154 25.9285 39.954 26.6245C38.754 27.2965 37.182 27.6325 35.238 27.6325ZM39.054 16.4005C39.27 16.4005 39.402 16.3645 39.45 16.2925C39.522 16.2205 39.558 16.0885 39.558 15.8965C39.558 14.9605 39.102 14.1805 38.19 13.5565C37.302 12.9325 36.198 12.6205 34.878 12.6205C33.822 12.6205 32.898 12.8245 32.106 13.2325C31.338 13.6405 30.75 14.1445 30.342 14.7445C29.934 15.3205 29.73 15.8725 29.73 16.4005H39.054ZM57.8714 20.1085C58.6634 20.1085 59.2394 20.2645 59.5994 20.5765C59.9594 20.8885 60.1394 21.3925 60.1394 22.0885C60.1394 23.6725 59.6354 24.9445 58.6274 25.9045C57.6194 26.8645 56.3474 27.3445 54.8114 27.3445C52.7234 27.3445 51.1994 26.5045 50.2394 24.8245C49.2794 23.1205 48.7994 20.4325 48.7994 16.7605C48.7994 15.6565 48.8114 14.8525 48.8354 14.3485C48.6674 14.3245 48.3914 14.3125 48.0074 14.3125C46.6394 14.2885 45.9554 13.6285 45.9554 12.3325C45.9554 11.6605 46.1234 11.1565 46.4594 10.8205C46.8194 10.4845 47.4434 10.3285 48.3314 10.3525L49.1234 10.3885C49.2914 8.90046 49.5674 7.07646 49.9514 4.91646C50.0474 4.34046 50.3114 3.90846 50.7434 3.62046C51.1994 3.30846 51.7754 3.15246 52.4714 3.15246C53.2874 3.15246 53.9234 3.34446 54.3794 3.72846C54.8354 4.11246 55.0634 4.58046 55.0634 5.13246L55.0274 5.42046L54.8474 6.57246C54.5594 8.54046 54.3674 9.88446 54.2714 10.6045C55.0874 10.6525 55.7114 10.6765 56.1434 10.6765C57.3674 10.7005 57.9794 11.3365 57.9794 12.5845C57.9794 13.2085 57.8114 13.6765 57.4754 13.9885C57.1394 14.3005 56.5754 14.4565 55.7834 14.4565H53.9834C53.9594 14.9365 53.9474 15.7045 53.9474 16.7605C53.9474 18.5365 53.9834 19.9045 54.0554 20.8645C54.1514 21.8005 54.2834 22.4365 54.4514 22.7725C54.6194 23.1085 54.8354 23.2765 55.0994 23.2765C55.4354 23.2765 55.6514 23.1685 55.7474 22.9525C55.8434 22.7365 55.8914 22.3525 55.8914 21.8005C55.8914 20.6725 56.5514 20.1085 57.8714 20.1085ZM73.1474 27.2365C72.3074 27.2365 71.6594 27.0205 71.2034 26.5885C70.7474 26.1565 70.5194 25.5685 70.5194 24.8245L70.4114 15.3205C70.0754 15.3205 69.4394 14.8645 68.5034 13.9525C67.5914 13.0165 66.8714 12.1525 66.3434 11.3605C65.8874 10.6885 65.3594 9.76446 64.7594 8.58846C64.1594 7.41246 63.6194 6.21246 63.1394 4.98846C63.0674 4.79646 63.0314 4.60446 63.0314 4.41246C63.0314 3.81246 63.3194 3.26046 63.8954 2.75646C64.4954 2.25246 65.2034 2.00046 66.0194 2.00046C66.5954 2.00046 67.0754 2.15646 67.4594 2.46846C67.8434 2.75646 68.1914 3.22446 68.5034 3.87246C69.6314 6.20046 70.5314 7.94046 71.2034 9.09246C72.1634 10.6765 72.8114 11.4685 73.1474 11.4685C73.4594 11.4685 74.0474 10.6765 74.9114 9.09246L77.7194 3.72846C78.0314 3.15246 78.3314 2.73246 78.6194 2.46846C78.9314 2.20446 79.4114 2.07246 80.0594 2.07246C80.9474 2.07246 81.6794 2.27646 82.2554 2.68446C82.8314 3.06846 83.1194 3.60846 83.1194 4.30446C83.1194 4.54446 83.0354 4.89246 82.8674 5.34846C82.6514 5.90046 82.1714 6.90846 81.4274 8.37246C80.7074 9.81246 80.1314 10.8565 79.6994 11.5045C79.1234 12.3925 78.3794 13.2565 77.4674 14.0965C76.5794 14.9125 75.9674 15.3205 75.6314 15.3205L75.7394 24.7165C75.7394 25.5085 75.5114 26.1325 75.0554 26.5885C74.6234 27.0205 73.9874 27.2365 73.1474 27.2365Z"/>
</mask>
<path d="M12.1162 27.2365C11.2762 27.2365 10.6282 27.0205 10.1722 26.5885C9.7162 26.1565 9.4882 25.5685 9.4882 24.8245L9.3802 15.3205C9.0442 15.3205 8.4082 14.8645 7.4722 13.9525C6.5602 13.0165 5.8402 12.1525 5.3122 11.3605C4.8562 10.6885 4.3282 9.76446 3.7282 8.58846C3.1282 7.41246 2.5882 6.21246 2.1082 4.98846C2.0362 4.79646 2.0002 4.60446 2.0002 4.41246C2.0002 3.81246 2.2882 3.26046 2.8642 2.75646C3.4642 2.25246 4.1722 2.00046 4.9882 2.00046C5.5642 2.00046 6.0442 2.15646 6.4282 2.46846C6.8122 2.75646 7.1602 3.22446 7.4722 3.87246C8.6002 6.20046 9.5002 7.94046 10.1722 9.09246C11.1322 10.6765 11.7802 11.4685 12.1162 11.4685C12.4282 11.4685 13.0162 10.6765 13.8802 9.09246L16.6882 3.72846C17.0002 3.15246 17.3002 2.73246 17.5882 2.46846C17.9002 2.20446 18.3802 2.07246 19.0282 2.07246C19.9162 2.07246 20.6482 2.27646 21.2242 2.68446C21.8002 3.06846 22.0882 3.60846 22.0882 4.30446C22.0882 4.54446 22.0042 4.89246 21.8362 5.34846C21.6202 5.90046 21.1402 6.90846 20.3962 8.37246C19.6762 9.81246 19.1002 10.8565 18.6682 11.5045C18.0922 12.3925 17.3482 13.2565 16.4362 14.0965C15.5482 14.9125 14.9362 15.3205 14.6002 15.3205L14.7082 24.7165C14.7082 25.5085 14.4802 26.1325 14.0242 26.5885C13.5922 27.0205 12.9562 27.2365 12.1162 27.2365ZM35.238 27.6325C33.054 27.6325 31.206 27.2245 29.694 26.4085C28.206 25.5925 27.09 24.4645 26.346 23.0245C25.602 21.5845 25.23 19.9525 25.23 18.1285C25.23 16.3045 25.65 14.6845 26.49 13.2685C27.354 11.8285 28.518 10.7125 29.982 9.92046C31.47 9.12846 33.126 8.73246 34.95 8.73246C36.582 8.73246 38.07 9.05646 39.414 9.70446C40.782 10.3525 41.85 11.2885 42.618 12.5125C43.41 13.7125 43.806 15.1285 43.806 16.7605C43.806 17.7925 43.614 18.5365 43.23 18.9925C42.87 19.4245 42.246 19.6405 41.358 19.6405H29.73C29.73 20.2165 29.934 20.8045 30.342 21.4045C30.75 21.9805 31.362 22.4725 32.178 22.8805C32.994 23.2885 33.966 23.4925 35.094 23.4925C36.102 23.4925 36.894 23.3485 37.47 23.0605C38.046 22.7485 38.646 22.2925 39.27 21.6925C39.726 21.2845 40.194 21.0805 40.674 21.0805C41.226 21.0805 41.742 21.2965 42.222 21.7285C42.702 22.1365 42.942 22.6045 42.942 23.1325C42.942 23.5645 42.798 23.9845 42.51 24.3925C42.006 25.1845 41.154 25.9285 39.954 26.6245C38.754 27.2965 37.182 27.6325 35.238 27.6325ZM39.054 16.4005C39.27 16.4005 39.402 16.3645 39.45 16.2925C39.522 16.2205 39.558 16.0885 39.558 15.8965C39.558 14.9605 39.102 14.1805 38.19 13.5565C37.302 12.9325 36.198 12.6205 34.878 12.6205C33.822 12.6205 32.898 12.8245 32.106 13.2325C31.338 13.6405 30.75 14.1445 30.342 14.7445C29.934 15.3205 29.73 15.8725 29.73 16.4005H39.054ZM57.8714 20.1085C58.6634 20.1085 59.2394 20.2645 59.5994 20.5765C59.9594 20.8885 60.1394 21.3925 60.1394 22.0885C60.1394 23.6725 59.6354 24.9445 58.6274 25.9045C57.6194 26.8645 56.3474 27.3445 54.8114 27.3445C52.7234 27.3445 51.1994 26.5045 50.2394 24.8245C49.2794 23.1205 48.7994 20.4325 48.7994 16.7605C48.7994 15.6565 48.8114 14.8525 48.8354 14.3485C48.6674 14.3245 48.3914 14.3125 48.0074 14.3125C46.6394 14.2885 45.9554 13.6285 45.9554 12.3325C45.9554 11.6605 46.1234 11.1565 46.4594 10.8205C46.8194 10.4845 47.4434 10.3285 48.3314 10.3525L49.1234 10.3885C49.2914 8.90046 49.5674 7.07646 49.9514 4.91646C50.0474 4.34046 50.3114 3.90846 50.7434 3.62046C51.1994 3.30846 51.7754 3.15246 52.4714 3.15246C53.2874 3.15246 53.9234 3.34446 54.3794 3.72846C54.8354 4.11246 55.0634 4.58046 55.0634 5.13246L55.0274 5.42046L54.8474 6.57246C54.5594 8.54046 54.3674 9.88446 54.2714 10.6045C55.0874 10.6525 55.7114 10.6765 56.1434 10.6765C57.3674 10.7005 57.9794 11.3365 57.9794 12.5845C57.9794 13.2085 57.8114 13.6765 57.4754 13.9885C57.1394 14.3005 56.5754 14.4565 55.7834 14.4565H53.9834C53.9594 14.9365 53.9474 15.7045 53.9474 16.7605C53.9474 18.5365 53.9834 19.9045 54.0554 20.8645C54.1514 21.8005 54.2834 22.4365 54.4514 22.7725C54.6194 23.1085 54.8354 23.2765 55.0994 23.2765C55.4354 23.2765 55.6514 23.1685 55.7474 22.9525C55.8434 22.7365 55.8914 22.3525 55.8914 21.8005C55.8914 20.6725 56.5514 20.1085 57.8714 20.1085ZM73.1474 27.2365C72.3074 27.2365 71.6594 27.0205 71.2034 26.5885C70.7474 26.1565 70.5194 25.5685 70.5194 24.8245L70.4114 15.3205C70.0754 15.3205 69.4394 14.8645 68.5034 13.9525C67.5914 13.0165 66.8714 12.1525 66.3434 11.3605C65.8874 10.6885 65.3594 9.76446 64.7594 8.58846C64.1594 7.41246 63.6194 6.21246 63.1394 4.98846C63.0674 4.79646 63.0314 4.60446 63.0314 4.41246C63.0314 3.81246 63.3194 3.26046 63.8954 2.75646C64.4954 2.25246 65.2034 2.00046 66.0194 2.00046C66.5954 2.00046 67.0754 2.15646 67.4594 2.46846C67.8434 2.75646 68.1914 3.22446 68.5034 3.87246C69.6314 6.20046 70.5314 7.94046 71.2034 9.09246C72.1634 10.6765 72.8114 11.4685 73.1474 11.4685C73.4594 11.4685 74.0474 10.6765 74.9114 9.09246L77.7194 3.72846C78.0314 3.15246 78.3314 2.73246 78.6194 2.46846C78.9314 2.20446 79.4114 2.07246 80.0594 2.07246C80.9474 2.07246 81.6794 2.27646 82.2554 2.68446C82.8314 3.06846 83.1194 3.60846 83.1194 4.30446C83.1194 4.54446 83.0354 4.89246 82.8674 5.34846C82.6514 5.90046 82.1714 6.90846 81.4274 8.37246C80.7074 9.81246 80.1314 10.8565 79.6994 11.5045C79.1234 12.3925 78.3794 13.2565 77.4674 14.0965C76.5794 14.9125 75.9674 15.3205 75.6314 15.3205L75.7394 24.7165C75.7394 25.5085 75.5114 26.1325 75.0554 26.5885C74.6234 27.0205 73.9874 27.2365 73.1474 27.2365Z" fill="#B6F5FE"/>
<path d="M10.1722 26.5885L11.5477 25.1366L11.5477 25.1366L10.1722 26.5885ZM9.4882 24.8245H11.4882V24.8131L11.4881 24.8017L9.4882 24.8245ZM9.3802 15.3205L11.3801 15.2977L11.3576 13.3205H9.3802V15.3205ZM7.4722 13.9525L6.03974 15.3482L6.05786 15.3668L6.07647 15.3849L7.4722 13.9525ZM5.3122 11.3605L6.9763 10.2511L6.97175 10.2442L6.96715 10.2375L5.3122 11.3605ZM3.7282 8.58846L5.50972 7.67952L5.50972 7.67952L3.7282 8.58846ZM2.1082 4.98846L0.235537 5.69071L0.240788 5.70471L0.246249 5.71864L2.1082 4.98846ZM2.8642 2.75646L1.57781 1.22505L1.56237 1.23802L1.54719 1.25131L2.8642 2.75646ZM6.4282 2.46846L5.16701 4.02069L5.19714 4.04517L5.2282 4.06846L6.4282 2.46846ZM7.4722 3.87246L5.67019 4.74009L5.67235 4.74455L7.4722 3.87246ZM10.1722 9.09246L8.44464 10.1002L8.4531 10.1147L8.4618 10.1291L10.1722 9.09246ZM13.8802 9.09246L15.636 10.0502L15.6442 10.0352L15.6521 10.02L13.8802 9.09246ZM16.6882 3.72846L14.9296 2.77589L14.9229 2.78834L14.9163 2.80089L16.6882 3.72846ZM17.5882 2.46846L16.2963 0.94169L16.266 0.967329L16.2367 0.994151L17.5882 2.46846ZM21.2242 2.68446L20.0682 4.31651L20.0913 4.33287L20.1148 4.34856L21.2242 2.68446ZM21.8362 5.34846L23.6987 6.07726L23.706 6.05864L23.7129 6.03987L21.8362 5.34846ZM20.3962 8.37246L18.6132 7.46634L18.6073 7.47803L20.3962 8.37246ZM18.6682 11.5045L17.0041 10.3951L16.9971 10.4055L16.9903 10.4161L18.6682 11.5045ZM16.4362 14.0965L17.7894 15.5691L17.7911 15.5676L16.4362 14.0965ZM14.6002 15.3205V13.3205H12.5771L12.6003 15.3434L14.6002 15.3205ZM14.7082 24.7165H16.7082V24.705L16.7081 24.6935L14.7082 24.7165ZM14.0242 26.5885L12.61 25.1742L12.61 25.1742L14.0242 26.5885ZM12.1162 27.2365V25.2365C11.8637 25.2365 11.7121 25.2036 11.6327 25.1771C11.5942 25.1643 11.5726 25.153 11.5626 25.1471C11.5531 25.1416 11.5493 25.1381 11.5477 25.1366L10.1722 26.5885L8.79671 28.0404C9.7352 28.9295 10.9411 29.2365 12.1162 29.2365V27.2365ZM10.1722 26.5885L11.5477 25.1366C11.5356 25.1251 11.5313 25.1194 11.5239 25.1004C11.5138 25.0744 11.4882 24.9927 11.4882 24.8245H9.4882H7.4882C7.4882 26.0078 7.86877 27.1613 8.79671 28.0404L10.1722 26.5885ZM9.4882 24.8245L11.4881 24.8017L11.3801 15.2977L9.3802 15.3205L7.38033 15.3432L7.48833 24.8472L9.4882 24.8245ZM9.3802 15.3205V13.3205C9.55975 13.3205 9.69637 13.3501 9.7747 13.3718C9.85481 13.3941 9.90534 13.4168 9.92139 13.4243C9.94829 13.4369 9.91688 13.425 9.81657 13.3531C9.616 13.2093 9.30482 12.9457 8.86792 12.52L7.4722 13.9525L6.07647 15.3849C6.57557 15.8712 7.05039 16.2917 7.48582 16.6039C7.70351 16.7599 7.9526 16.919 8.22251 17.0456C8.46856 17.161 8.87873 17.3205 9.3802 17.3205V15.3205ZM7.4722 13.9525L8.90465 12.5567C8.04922 11.6788 7.41616 10.9109 6.9763 10.2511L5.3122 11.3605L3.64809 12.4699C4.26423 13.3941 5.07117 14.3541 6.03974 15.3482L7.4722 13.9525ZM5.3122 11.3605L6.96715 10.2375C6.57735 9.66302 6.09218 8.82114 5.50972 7.67952L3.7282 8.58846L1.94667 9.4974C2.56421 10.7078 3.13504 11.7139 3.65724 12.4835L5.3122 11.3605ZM3.7282 8.58846L5.50972 7.67952C4.93931 6.56151 4.42617 5.42117 3.97014 4.25829L2.1082 4.98846L0.246249 5.71864C0.750218 7.00376 1.31708 8.2634 1.94667 9.4974L3.7282 8.58846ZM2.1082 4.98846L3.98085 4.28621C3.98347 4.29319 3.98859 4.3087 3.99294 4.33188C3.99733 4.3553 4.0002 4.38266 4.0002 4.41246H2.0002H0.000195339C0.000195339 4.86018 0.0850964 5.28953 0.235537 5.69071L2.1082 4.98846ZM2.0002 4.41246H4.0002C4.0002 4.42424 3.99856 4.44021 3.99448 4.45653C3.99048 4.47253 3.98666 4.47877 3.98937 4.47359C3.99562 4.46159 4.03848 4.3865 4.18121 4.26161L2.8642 2.75646L1.54719 1.25131C0.665413 2.02286 0.000195339 3.08476 0.000195339 4.41246H2.0002ZM2.8642 2.75646L4.15058 4.28787C4.37439 4.09987 4.62161 4.00046 4.9882 4.00046V2.00046V0.000460148C3.72279 0.000460148 2.554 0.405048 1.57781 1.22505L2.8642 2.75646ZM4.9882 2.00046V4.00046C5.09542 4.00046 5.14761 4.01484 5.16202 4.01953C5.16958 4.02199 5.17138 4.02324 5.16963 4.02229C5.16781 4.02131 5.16658 4.02034 5.16701 4.02069L6.4282 2.46846L7.68938 0.916233C6.89199 0.268355 5.94446 0.000460148 4.9882 0.000460148V2.00046ZM6.4282 2.46846L5.2282 4.06846C5.25964 4.09204 5.43362 4.24875 5.67019 4.74009L7.4722 3.87246L9.2742 3.00483C8.88677 2.20017 8.36475 1.42087 7.62819 0.868459L6.4282 2.46846ZM7.4722 3.87246L5.67235 4.74455C6.80611 7.08444 7.73293 8.88012 8.44464 10.1002L10.1722 9.09246L11.8998 8.08472C11.2675 7.0008 10.3943 5.31648 9.27204 3.00037L7.4722 3.87246ZM10.1722 9.09246L8.4618 10.1291C8.95826 10.9482 9.41733 11.6362 9.83028 12.1409C10.0331 12.3889 10.2755 12.6557 10.5517 12.878C10.7584 13.0443 11.3194 13.4685 12.1162 13.4685V11.4685V9.46846C12.4613 9.46846 12.714 9.56751 12.8385 9.62707C12.9672 9.68865 13.0424 9.74797 13.0597 9.76194C13.0898 9.78619 13.0472 9.75604 12.9261 9.60798C12.6911 9.3207 12.3461 8.82069 11.8826 8.05586L10.1722 9.09246ZM12.1162 11.4685V13.4685C12.9645 13.4685 13.5381 12.9843 13.7232 12.8214C13.9867 12.5895 14.2125 12.3152 14.397 12.0667C14.7742 11.5586 15.1895 10.8687 15.636 10.0502L13.8802 9.09246L12.1244 8.13476C11.7069 8.9002 11.3962 9.39829 11.1854 9.68226C11.0759 9.82973 11.0422 9.85241 11.0807 9.81853C11.102 9.79982 11.1839 9.7294 11.3239 9.65667C11.4595 9.58618 11.7364 9.46846 12.1162 9.46846V11.4685ZM13.8802 9.09246L15.6521 10.02L18.4601 4.65603L16.6882 3.72846L14.9163 2.80089L12.1083 8.16489L13.8802 9.09246ZM16.6882 3.72846L18.4468 4.68102C18.7144 4.18687 18.8892 3.98903 18.9396 3.94277L17.5882 2.46846L16.2367 0.994151C15.7112 1.47589 15.2859 2.11805 14.9296 2.77589L16.6882 3.72846ZM17.5882 2.46846L18.8801 3.99523C18.7715 4.08714 18.6927 4.10532 18.7125 4.09987C18.7224 4.09716 18.752 4.08999 18.8062 4.08365C18.8601 4.07734 18.9333 4.07246 19.0282 4.07246V2.07246V0.0724592C18.1685 0.0724592 17.1284 0.237623 16.2963 0.94169L17.5882 2.46846ZM19.0282 2.07246V4.07246C19.6096 4.07246 19.9084 4.20333 20.0682 4.31651L21.2242 2.68446L22.3802 1.05241C21.388 0.349589 20.2228 0.0724592 19.0282 0.0724592V2.07246ZM21.2242 2.68446L20.1148 4.34856C20.1425 4.36703 20.148 4.37481 20.1413 4.3677C20.1382 4.3643 20.1329 4.3582 20.1265 4.34934C20.1201 4.34045 20.1136 4.3301 20.1075 4.31864C20.1014 4.30717 20.0965 4.29618 20.0928 4.28633C20.0892 4.27652 20.0872 4.26932 20.0864 4.26557C20.0845 4.25772 20.0882 4.26866 20.0882 4.30446H22.0882H24.0882C24.0882 2.94411 23.4696 1.7777 22.3336 1.02036L21.2242 2.68446ZM22.0882 4.30446H20.0882C20.0882 4.27654 20.0894 4.25562 20.0904 4.2427C20.0914 4.22969 20.0925 4.22253 20.0925 4.22187C20.0926 4.22154 20.0901 4.2387 20.081 4.27618C20.0623 4.35374 20.0255 4.47795 19.9595 4.65705L21.8362 5.34846L23.7129 6.03987C23.8964 5.54174 24.0882 4.91613 24.0882 4.30446H22.0882ZM21.8362 5.34846L19.9737 4.61966C19.7983 5.06787 19.362 5.99304 18.6132 7.46636L20.3962 8.37246L22.1792 9.27856C22.9184 7.82388 23.4421 6.73305 23.6987 6.07726L21.8362 5.34846ZM20.3962 8.37246L18.6073 7.47803C17.8941 8.90462 17.3636 9.85583 17.0041 10.3951L18.6682 11.5045L20.3323 12.6139C20.8368 11.8571 21.4583 10.7203 22.1851 9.26689L20.3962 8.37246ZM18.6682 11.5045L16.9903 10.4161C16.5195 11.1419 15.8904 11.88 15.0812 12.6254L16.4362 14.0965L17.7911 15.5676C18.8059 14.6329 19.6649 13.643 20.3461 12.5928L18.6682 11.5045ZM16.4362 14.0965L15.0829 12.6238C14.6736 13 14.3848 13.2283 14.2018 13.3504C14.1109 13.411 14.0847 13.4192 14.1133 13.4069C14.1243 13.4022 14.3064 13.3205 14.6002 13.3205V15.3205V17.3205C15.4175 17.3205 16.0945 16.896 16.4206 16.6786C16.8495 16.3926 17.3108 16.0089 17.7894 15.5691L16.4362 14.0965ZM14.6002 15.3205L12.6003 15.3434L12.7083 24.7394L14.7082 24.7165L16.7081 24.6935L16.6001 15.2975L14.6002 15.3205ZM14.7082 24.7165H12.7082C12.7082 24.9222 12.6785 25.0377 12.6587 25.0921C12.6415 25.139 12.6258 25.1585 12.61 25.1742L14.0242 26.5885L15.4384 28.0027C16.3515 27.0895 16.7082 25.9103 16.7082 24.7165H14.7082ZM14.0242 26.5885L12.61 25.1742C12.6317 25.1525 12.6369 25.1614 12.58 25.1807C12.5136 25.2033 12.3699 25.2365 12.1162 25.2365V27.2365V29.2365C13.2834 29.2365 14.5087 28.9324 15.4384 28.0027L14.0242 26.5885ZM29.694 26.4085L28.7324 28.1621L28.7442 28.1685L29.694 26.4085ZM26.346 23.0245L28.1229 22.1064L28.1229 22.1064L26.346 23.0245ZM26.49 13.2685L24.775 12.2395L24.7699 12.2481L26.49 13.2685ZM29.982 9.92046L29.0423 8.15493L29.0304 8.16137L29.982 9.92046ZM39.414 9.70446L38.5454 11.506L38.5579 11.5119L39.414 9.70446ZM42.618 12.5125L40.9239 13.5754L40.9361 13.5949L40.9488 13.6141L42.618 12.5125ZM43.23 18.9925L41.7002 17.7042L41.6936 17.7121L43.23 18.9925ZM29.73 19.6405V17.6405H27.73V19.6405H29.73ZM30.342 21.4045L28.6882 22.5291L28.6989 22.5449L28.71 22.5605L30.342 21.4045ZM32.178 22.8805L31.2836 24.6693L31.2836 24.6693L32.178 22.8805ZM37.47 23.0605L38.3645 24.8493L38.3938 24.8347L38.4226 24.819L37.47 23.0605ZM39.27 21.6925L37.9365 20.202L37.9097 20.2259L37.8838 20.2508L39.27 21.6925ZM42.222 21.7285L40.8841 23.215L40.9052 23.234L40.9267 23.2523L42.222 21.7285ZM42.51 24.3925L40.8761 23.2391L40.8485 23.2783L40.8227 23.3187L42.51 24.3925ZM39.954 26.6245L40.9312 28.3695L40.9444 28.3621L40.9575 28.3545L39.954 26.6245ZM39.45 16.2925L38.0358 14.8783L37.8958 15.0183L37.7859 15.1831L39.45 16.2925ZM38.19 13.5565L37.0401 15.1928L37.0504 15.2L37.0607 15.2071L38.19 13.5565ZM32.106 13.2325L31.1901 11.4545L31.1789 11.4603L31.1677 11.4662L32.106 13.2325ZM30.342 14.7445L31.9741 15.9005L31.9851 15.8849L31.9959 15.8691L30.342 14.7445ZM29.73 16.4005H27.73V18.4005H29.73V16.4005ZM35.238 27.6325V25.6325C33.2978 25.6325 31.7955 25.2699 30.6439 24.6484L29.694 26.4085L28.7442 28.1685C30.6166 29.179 32.8103 29.6325 35.238 29.6325V27.6325ZM29.694 26.4085L30.6557 24.6548C29.4992 24.0206 28.6754 23.1759 28.1229 22.1064L26.346 23.0245L24.5692 23.9425C25.5046 25.7531 26.9129 27.1643 28.7324 28.1621L29.694 26.4085ZM26.346 23.0245L28.1229 22.1064C27.543 20.9841 27.23 19.6735 27.23 18.1285H25.23H23.23C23.23 20.2314 23.661 22.1848 24.5692 23.9425L26.346 23.0245ZM25.23 18.1285H27.23C27.23 16.6238 27.5727 15.3635 28.2101 14.2889L26.49 13.2685L24.7699 12.2481C23.7274 14.0054 23.23 15.9852 23.23 18.1285H25.23ZM26.49 13.2685L28.205 14.2975C28.8863 13.1619 29.7879 12.2994 30.9337 11.6795L29.982 9.92046L29.0304 8.16137C27.2482 9.12553 25.8217 10.495 24.7751 12.2395L26.49 13.2685ZM29.982 9.92046L30.9217 11.686C32.0971 11.0604 33.4262 10.7325 34.95 10.7325V8.73246V6.73246C32.8259 6.73246 30.843 7.19654 29.0423 8.15497L29.982 9.92046ZM34.95 8.73246V10.7325C36.3099 10.7325 37.497 11.0005 38.5454 11.506L39.414 9.70446L40.2826 7.90292C38.6431 7.11241 36.8542 6.73246 34.95 6.73246V8.73246ZM39.414 9.70446L38.5579 11.5119C39.5985 12.0049 40.3685 12.6902 40.9239 13.5754L42.618 12.5125L44.3122 11.4495C43.3316 9.88674 41.9656 8.70005 40.2702 7.89698L39.414 9.70446ZM42.618 12.5125L40.9488 13.6141C41.4969 14.4445 41.806 15.4656 41.806 16.7605H43.806H45.806C45.806 14.7913 45.3232 12.9804 44.2873 11.4108L42.618 12.5125ZM43.806 16.7605H41.806C41.806 17.1615 41.7678 17.4288 41.7255 17.5927C41.6835 17.7555 41.6519 17.7615 41.7002 17.7042L43.23 18.9925L44.7599 20.2807C45.6016 19.2812 45.806 17.951 45.806 16.7605H43.806ZM43.23 18.9925L41.6936 17.7121C41.7846 17.6029 41.8664 17.5786 41.8378 17.5885C41.7948 17.6034 41.6511 17.6405 41.358 17.6405V19.6405V21.6405C42.4971 21.6405 43.8514 21.3709 44.7665 20.2728L43.23 18.9925ZM41.358 19.6405V17.6405H29.73V19.6405V21.6405H41.358V19.6405ZM29.73 19.6405H27.73C27.73 20.7105 28.1133 21.6836 28.6882 22.5291L30.342 21.4045L31.9959 20.2798C31.7548 19.9253 31.73 19.7224 31.73 19.6405H29.73ZM30.342 21.4045L28.71 22.5605C29.3556 23.472 30.257 24.156 31.2836 24.6693L32.178 22.8805L33.0725 21.0916C32.4671 20.7889 32.1445 20.489 31.9741 20.2484L30.342 21.4045ZM32.178 22.8805L31.2836 24.6693C32.4352 25.2451 33.7275 25.4925 35.094 25.4925V23.4925V21.4925C34.2046 21.4925 33.5528 21.3318 33.0725 21.0916L32.178 22.8805ZM35.094 23.4925V25.4925C36.2545 25.4925 37.3975 25.3328 38.3645 24.8493L37.47 23.0605L36.5756 21.2716C36.3906 21.3641 35.9496 21.4925 35.094 21.4925V23.4925ZM37.47 23.0605L38.4226 24.819C39.1981 24.399 39.9415 23.8214 40.6563 23.1341L39.27 21.6925L37.8838 20.2508C37.3506 20.7636 36.894 21.0979 36.5175 21.3019L37.47 23.0605ZM39.27 21.6925L40.6036 23.1829C40.7034 23.0937 40.7578 23.0688 40.7622 23.0669C40.7638 23.0661 40.7551 23.0701 40.737 23.074C40.7187 23.0779 40.6969 23.0805 40.674 23.0805V21.0805V19.0805C39.5783 19.0805 38.6552 19.5589 37.9365 20.202L39.27 21.6925ZM40.674 21.0805V23.0805C40.6813 23.0805 40.686 23.0803 40.7028 23.0873C40.7241 23.0963 40.7858 23.1266 40.8841 23.215L42.222 21.7285L43.56 20.2419C42.779 19.539 41.8025 19.0805 40.674 19.0805V21.0805ZM42.222 21.7285L40.9267 23.2523C41.0055 23.3193 41.0034 23.339 40.9824 23.2981C40.972 23.2779 40.9608 23.2498 40.9527 23.2162C40.9446 23.1826 40.942 23.1534 40.942 23.1325H42.942H44.942C44.942 21.9034 44.3493 20.9118 43.5173 20.2046L42.222 21.7285ZM42.942 23.1325H40.942C40.942 23.1216 40.9446 23.1157 40.9421 23.1228C40.9389 23.1324 40.924 23.1712 40.8761 23.2391L42.51 24.3925L44.144 25.5458C44.6318 24.8548 44.942 24.0394 44.942 23.1325H42.942ZM42.51 24.3925L40.8227 23.3187C40.5534 23.742 39.9956 24.2883 38.9506 24.8944L39.954 26.6245L40.9575 28.3545C42.3124 27.5686 43.4587 26.6269 44.1974 25.4662L42.51 24.3925ZM39.954 26.6245L38.9768 24.8794C38.1736 25.3293 36.9735 25.6325 35.238 25.6325V27.6325V29.6325C37.3906 29.6325 39.3345 29.2637 40.9312 28.3695L39.954 26.6245ZM39.054 16.4005V18.4005C39.2499 18.4005 39.5345 18.3866 39.8413 18.303C40.1164 18.2279 40.7045 18.0163 41.1141 17.4019L39.45 16.2925L37.7859 15.1831C38.1476 14.6406 38.6457 14.483 38.7888 14.4439C38.885 14.4177 38.958 14.4081 38.9945 14.4043C39.0145 14.4023 39.0296 14.4013 39.0389 14.4009C39.0483 14.4005 39.0535 14.4005 39.054 14.4005V16.4005ZM39.45 16.2925L40.8643 17.7067C41.5294 17.0415 41.558 16.1993 41.558 15.8965H39.558H37.558C37.558 15.8802 37.5582 15.7722 37.6015 15.6132C37.6448 15.4546 37.7554 15.1587 38.0358 14.8783L39.45 16.2925ZM39.558 15.8965H41.558C41.558 14.1742 40.6632 12.8253 39.3194 11.9058L38.19 13.5565L37.0607 15.2071C37.5409 15.5357 37.558 15.7468 37.558 15.8965H39.558ZM38.19 13.5565L39.3399 11.9201C38.0481 11.0123 36.5192 10.6205 34.878 10.6205V12.6205V14.6205C35.8769 14.6205 36.556 14.8526 37.0401 15.1928L38.19 13.5565ZM34.878 12.6205V10.6205C33.5622 10.6205 32.3134 10.8759 31.1901 11.4545L32.106 13.2325L33.022 15.0104C33.4827 14.7731 34.0819 14.6205 34.878 14.6205V12.6205ZM32.106 13.2325L31.1677 11.4662C30.1693 11.9967 29.312 12.7025 28.6882 13.6198L30.342 14.7445L31.9959 15.8691C32.1881 15.5864 32.5068 15.2843 33.0443 14.9987L32.106 13.2325ZM30.342 14.7445L28.71 13.5884C28.1421 14.3902 27.73 15.3393 27.73 16.4005H29.73H31.73C31.73 16.3986 31.7297 16.3631 31.759 16.2838C31.7897 16.2008 31.8519 16.073 31.9741 15.9005L30.342 14.7445ZM29.73 16.4005V18.4005H39.054V16.4005V14.4005H29.73V16.4005ZM59.5994 20.5765L58.2895 22.0878L58.2895 22.0878L59.5994 20.5765ZM58.6274 25.9045L57.248 24.4562L57.248 24.4562L58.6274 25.9045ZM50.2394 24.8245L48.4968 25.8062L48.5029 25.8167L50.2394 24.8245ZM48.8354 14.3485L50.8331 14.4436L50.9196 12.6259L49.1182 12.3686L48.8354 14.3485ZM48.0074 14.3125L47.9723 16.3122L47.9898 16.3125H48.0074V14.3125ZM46.4594 10.8205L45.0947 9.35835L45.0695 9.38187L45.0451 9.40625L46.4594 10.8205ZM48.3314 10.3525L48.4222 8.35452L48.4038 8.35369L48.3854 8.35319L48.3314 10.3525ZM49.1234 10.3885L49.0325 12.3864L50.9009 12.4713L51.1107 10.6128L49.1234 10.3885ZM49.9514 4.91646L51.9205 5.26653L51.9224 5.2559L51.9241 5.24526L49.9514 4.91646ZM50.7434 3.62046L51.8527 5.28456L51.8628 5.27788L51.8727 5.27107L50.7434 3.62046ZM54.3794 3.72846L55.6676 2.19864L55.6676 2.19864L54.3794 3.72846ZM55.0634 5.13246L57.0479 5.38053L57.0634 5.25698V5.13246H55.0634ZM55.0274 5.42046L57.0034 5.72921L57.0081 5.69893L57.0119 5.66853L55.0274 5.42046ZM54.8474 6.57246L52.8713 6.26371L52.8698 6.27328L52.8684 6.28286L54.8474 6.57246ZM54.2714 10.6045L52.2889 10.3401L52.0043 12.4746L54.1539 12.601L54.2714 10.6045ZM56.1434 10.6765L56.1826 8.67684L56.163 8.67646H56.1434V10.6765ZM53.9834 14.4565V12.4565H52.0809L51.9858 14.3566L53.9834 14.4565ZM54.0554 20.8645L52.061 21.014L52.063 21.0413L52.0658 21.0685L54.0554 20.8645ZM54.4514 22.7725L52.6625 23.6669L52.6625 23.6669L54.4514 22.7725ZM55.7474 22.9525L57.575 23.7647L57.575 23.7647L55.7474 22.9525ZM57.8714 20.1085V22.1085C58.1446 22.1085 58.3021 22.1363 58.3745 22.1559C58.4435 22.1746 58.387 22.1723 58.2895 22.0878L59.5994 20.5765L60.9092 19.0651C60.0115 18.287 58.8488 18.1085 57.8714 18.1085V20.1085ZM59.5994 20.5765L58.2895 22.0878C58.2385 22.0437 58.1978 21.9956 58.1677 21.9502C58.1384 21.9058 58.1251 21.8729 58.1209 21.8611C58.117 21.8502 58.1219 21.8606 58.1277 21.8991C58.1335 21.9379 58.1394 21.9996 58.1394 22.0885H60.1394H62.1394C62.1394 21.0856 61.8787 19.9053 60.9092 19.0651L59.5994 20.5765ZM60.1394 22.0885H58.1394C58.1394 23.2079 57.8035 23.9272 57.248 24.4562L58.6274 25.9045L60.0067 27.3527C61.4672 25.9617 62.1394 24.137 62.1394 22.0885H60.1394ZM58.6274 25.9045L57.248 24.4562C56.6518 25.024 55.8917 25.3445 54.8114 25.3445V27.3445V29.3445C56.803 29.3445 58.5869 28.7049 60.0067 27.3527L58.6274 25.9045ZM54.8114 27.3445V25.3445C53.3717 25.3445 52.5466 24.8311 51.9758 23.8322L50.2394 24.8245L48.5029 25.8167C49.8521 28.1779 52.075 29.3445 54.8114 29.3445V27.3445ZM50.2394 24.8245L51.9818 23.8428C51.2821 22.6008 50.7994 20.3418 50.7994 16.7605H48.7994H46.7994C46.7994 20.5231 47.2766 23.6401 48.4969 25.8061L50.2394 24.8245ZM48.7994 16.7605H50.7994C50.7994 15.6601 50.8115 14.8967 50.8331 14.4436L48.8354 14.3485L46.8376 14.2533C46.8112 14.8082 46.7994 15.6528 46.7994 16.7605H48.7994ZM48.8354 14.3485L49.1182 12.3686C48.7978 12.3228 48.3983 12.3125 48.0074 12.3125V14.3125V16.3125C48.1806 16.3125 48.3151 16.3152 48.4155 16.3196C48.523 16.3242 48.5609 16.3296 48.5525 16.3284L48.8354 14.3485ZM48.0074 14.3125L48.0424 12.3128C47.9496 12.3111 47.8793 12.3044 47.8287 12.2966C47.7781 12.2889 47.7508 12.2808 47.7421 12.2778C47.7338 12.2751 47.7447 12.2779 47.768 12.2916C47.7921 12.3057 47.8238 12.3281 47.8571 12.3602C47.8906 12.3925 47.9181 12.4273 47.9389 12.4605C47.9593 12.493 47.9686 12.5167 47.9715 12.525C47.9742 12.5326 47.97 12.5231 47.9652 12.4912C47.9603 12.459 47.9554 12.4072 47.9554 12.3325H45.9554H43.9554C43.9554 13.3199 44.2215 14.4107 45.0796 15.2387C45.9184 16.0481 47.0033 16.2952 47.9723 16.3122L48.0074 14.3125ZM45.9554 12.3325H47.9554C47.9554 12.247 47.9607 12.1849 47.9668 12.1428C47.9727 12.1009 47.9788 12.0827 47.9787 12.0829C47.9784 12.0838 47.9719 12.1028 47.9538 12.133C47.9353 12.1638 47.9087 12.1995 47.8736 12.2347L46.4594 10.8205L45.0451 9.40625C44.2018 10.2496 43.9554 11.3522 43.9554 12.3325H45.9554ZM46.4594 10.8205L47.824 12.2826C47.6916 12.4061 47.6017 12.4119 47.6824 12.3917C47.7656 12.3709 47.9512 12.3429 48.2773 12.3517L48.3314 10.3525L48.3854 8.35319C47.3566 8.32538 46.0495 8.46724 45.0947 9.35835L46.4594 10.8205ZM48.3314 10.3525L48.2405 12.3504L49.0325 12.3864L49.1234 10.3885L49.2142 8.39052L48.4222 8.35452L48.3314 10.3525ZM49.1234 10.3885L51.1107 10.6128C51.2723 9.18131 51.5408 7.40206 51.9205 5.26653L49.9514 4.91646L47.9822 4.56639C47.5939 6.75086 47.3104 8.61961 47.136 10.1641L49.1234 10.3885ZM49.9514 4.91646L51.9241 5.24526C51.9304 5.20782 51.9367 5.1888 51.9383 5.18413C51.9398 5.17996 51.9374 5.18789 51.9279 5.20336C51.9183 5.21918 51.905 5.23682 51.8888 5.25351C51.8728 5.27007 51.8594 5.28015 51.8527 5.28456L50.7434 3.62046L49.634 1.95636C48.6823 2.59078 48.1529 3.54137 47.9786 4.58766L49.9514 4.91646ZM50.7434 3.62046L51.8727 5.27107C51.9189 5.23946 52.0735 5.15246 52.4714 5.15246V3.15246V1.15246C51.4772 1.15246 50.4798 1.37746 49.614 1.96985L50.7434 3.62046ZM52.4714 3.15246V5.15246C52.7264 5.15246 52.8888 5.18288 52.9823 5.21112C53.0278 5.22485 53.0557 5.23762 53.0705 5.24545C53.0849 5.25304 53.0904 5.2577 53.0911 5.25828L54.3794 3.72846L55.6676 2.19864C54.7374 1.41532 53.5852 1.15246 52.4714 1.15246V3.15246ZM54.3794 3.72846L53.0911 5.25828C53.1148 5.27822 53.1217 5.28764 53.119 5.28428C53.1159 5.28038 53.1057 5.26669 53.0944 5.2434C53.0829 5.2198 53.0741 5.19445 53.0688 5.1705C53.0662 5.15914 53.0648 5.14976 53.0641 5.14286C53.0634 5.13601 53.0634 5.13239 53.0634 5.13246H55.0634H57.0634C57.0634 3.93891 56.5339 2.92811 55.6676 2.19864L54.3794 3.72846ZM55.0634 5.13246L53.0788 4.88439L53.0428 5.17239L55.0274 5.42046L57.0119 5.66853L57.0479 5.38053L55.0634 5.13246ZM55.0274 5.42046L53.0513 5.11171L52.8713 6.26371L54.8474 6.57246L56.8234 6.88121L57.0034 5.72921L55.0274 5.42046ZM54.8474 6.57246L52.8684 6.28286C52.5806 8.24963 52.3868 9.60568 52.2889 10.3401L54.2714 10.6045L56.2538 10.8688C56.3479 10.1632 56.5381 8.83129 56.8263 6.86206L54.8474 6.57246ZM54.2714 10.6045L54.1539 12.601C54.9811 12.6497 55.6517 12.6765 56.1434 12.6765V10.6765V8.67646C55.771 8.67646 55.1936 8.65525 54.3888 8.60791L54.2714 10.6045ZM56.1434 10.6765L56.1041 12.6761C56.2457 12.6789 56.2897 12.6984 56.27 12.6913C56.2584 12.6871 56.231 12.6759 56.1944 12.6528C56.1572 12.6293 56.1172 12.5977 56.0792 12.5582C56.0412 12.5188 56.0126 12.479 55.9924 12.4443C55.9726 12.4103 55.9644 12.3871 55.9624 12.3811C55.9598 12.373 55.9794 12.4303 55.9794 12.5845H57.9794H59.9794C59.9794 11.6585 59.7517 10.6059 58.9615 9.7847C58.1647 8.95667 57.1157 8.69514 56.1826 8.67684L56.1434 10.6765ZM57.9794 12.5845H55.9794C55.9794 12.7224 55.9602 12.7578 55.971 12.7277C55.977 12.711 55.9904 12.6794 56.016 12.6398C56.042 12.5996 56.0752 12.5593 56.1144 12.5229L57.4754 13.9885L58.8363 15.454C59.7108 14.642 59.9794 13.5563 59.9794 12.5845H57.9794ZM57.4754 13.9885L56.1144 12.5229C56.2373 12.4088 56.3233 12.3963 56.2672 12.4118C56.2077 12.4283 56.0581 12.4565 55.7834 12.4565V14.4565V16.4565C56.7421 16.4565 57.9407 16.2856 58.8363 15.454L57.4754 13.9885ZM55.7834 14.4565V12.4565H53.9834V14.4565V16.4565H55.7834V14.4565ZM53.9834 14.4565L51.9858 14.3566C51.9592 14.8901 51.9474 15.7008 51.9474 16.7605H53.9474H55.9474C55.9474 15.7081 55.9595 14.9828 55.9809 14.5563L53.9834 14.4565ZM53.9474 16.7605H51.9474C51.9474 18.5523 51.9833 19.9791 52.061 21.014L54.0554 20.8645L56.0498 20.7149C55.9834 19.8299 55.9474 18.5206 55.9474 16.7605H53.9474ZM54.0554 20.8645L52.0658 21.0685C52.1602 21.9888 52.312 22.9658 52.6625 23.6669L54.4514 22.7725L56.2402 21.878C56.2698 21.9372 56.237 21.8895 56.1846 21.637C56.1371 21.4082 56.0887 21.0877 56.0449 20.6604L54.0554 20.8645ZM54.4514 22.7725L52.6625 23.6669C53.0058 24.3535 53.7708 25.2765 55.0994 25.2765V23.2765V21.2765C55.4293 21.2765 55.738 21.3935 55.9672 21.5718C56.1658 21.7262 56.2376 21.8729 56.2402 21.878L54.4514 22.7725ZM55.0994 23.2765V25.2765C55.8372 25.2765 57.0254 25.0013 57.575 23.7647L55.7474 22.9525L53.9197 22.1402C54.0645 21.8144 54.3218 21.5552 54.6189 21.4066C54.8755 21.2783 55.0713 21.2765 55.0994 21.2765V23.2765ZM55.7474 22.9525L57.575 23.7647C57.8596 23.1243 57.8914 22.3554 57.8914 21.8005H55.8914H53.8914C53.8914 22.0253 53.8812 22.1711 53.8708 22.2544C53.8658 22.2944 53.8626 22.3047 53.8656 22.2922C53.8679 22.2824 53.8819 22.2253 53.9197 22.1402L55.7474 22.9525ZM55.8914 21.8005H57.8914C57.8914 21.709 57.9052 21.7183 57.8784 21.787C57.8645 21.8226 57.8417 21.8686 57.8066 21.9187C57.7713 21.969 57.7298 22.0142 57.6857 22.0519C57.5952 22.1292 57.5313 22.1439 57.553 22.1377C57.5803 22.1299 57.6773 22.1085 57.8714 22.1085V20.1085V18.1085C56.9732 18.1085 55.9265 18.2936 55.087 19.011C54.1874 19.7798 53.8914 20.8388 53.8914 21.8005H55.8914ZM71.2034 26.5885L72.5789 25.1366L72.5789 25.1366L71.2034 26.5885ZM70.5194 24.8245H72.5194V24.8131L72.5193 24.8017L70.5194 24.8245ZM70.4114 15.3205L72.4113 15.2977L72.3888 13.3205H70.4114V15.3205ZM68.5034 13.9525L67.071 15.3482L67.0891 15.3668L67.1077 15.3849L68.5034 13.9525ZM66.3434 11.3605L68.0075 10.2511L68.003 10.2442L67.9984 10.2375L66.3434 11.3605ZM64.7594 8.58846L66.541 7.67952L66.541 7.67952L64.7594 8.58846ZM63.1394 4.98846L61.2668 5.69071L61.272 5.70471L61.2775 5.71864L63.1394 4.98846ZM63.8954 2.75646L62.6091 1.22505L62.5936 1.23802L62.5784 1.25131L63.8954 2.75646ZM67.4594 2.46846L66.1983 4.02069L66.2284 4.04517L66.2594 4.06846L67.4594 2.46846ZM68.5034 3.87246L66.7014 4.74009L66.7036 4.74455L68.5034 3.87246ZM71.2034 9.09246L69.4759 10.1002L69.4843 10.1147L69.4931 10.1291L71.2034 9.09246ZM74.9114 9.09246L76.6672 10.0502L76.6754 10.0352L76.6833 10.02L74.9114 9.09246ZM77.7194 3.72846L75.9609 2.77589L75.9541 2.78834L75.9476 2.80089L77.7194 3.72846ZM78.6194 2.46846L77.3276 0.94169L77.2973 0.967329L77.268 0.994151L78.6194 2.46846ZM82.2554 2.68446L81.0994 4.31651L81.1225 4.33287L81.146 4.34856L82.2554 2.68446ZM82.8674 5.34846L84.7299 6.07726L84.7372 6.05864L84.7441 6.03987L82.8674 5.34846ZM81.4274 8.37246L79.6444 7.46634L79.6386 7.47803L81.4274 8.37246ZM79.6994 11.5045L78.0353 10.3951L78.0284 10.4055L78.0215 10.4161L79.6994 11.5045ZM77.4674 14.0965L78.8207 15.5691L78.8224 15.5676L77.4674 14.0965ZM75.6314 15.3205V13.3205H73.6083L73.6316 15.3434L75.6314 15.3205ZM75.7394 24.7165H77.7394V24.705L77.7393 24.6935L75.7394 24.7165ZM75.0554 26.5885L73.6412 25.1742L73.6412 25.1742L75.0554 26.5885ZM73.1474 27.2365V25.2365C72.8949 25.2365 72.7433 25.2036 72.6639 25.1771C72.6254 25.1643 72.6038 25.153 72.5938 25.1471C72.5843 25.1416 72.5806 25.1381 72.5789 25.1366L71.2034 26.5885L69.828 28.0404C70.7665 28.9295 71.9724 29.2365 73.1474 29.2365V27.2365ZM71.2034 26.5885L72.5789 25.1366C72.5669 25.1251 72.5625 25.1194 72.5552 25.1004C72.5451 25.0744 72.5194 24.9927 72.5194 24.8245H70.5194H68.5194C68.5194 26.0078 68.9 27.1613 69.828 28.0404L71.2034 26.5885ZM70.5194 24.8245L72.5193 24.8017L72.4113 15.2977L70.4114 15.3205L68.4116 15.3432L68.5196 24.8472L70.5194 24.8245ZM70.4114 15.3205V13.3205C70.591 13.3205 70.7276 13.3501 70.8059 13.3718C70.8861 13.3941 70.9366 13.4168 70.9526 13.4243C70.9795 13.4369 70.9481 13.425 70.8478 13.3531C70.6473 13.2093 70.3361 12.9457 69.8992 12.52L68.5034 13.9525L67.1077 15.3849C67.6068 15.8712 68.0816 16.2917 68.5171 16.6039C68.7348 16.7599 68.9839 16.919 69.2538 17.0456C69.4998 17.161 69.91 17.3205 70.4114 17.3205V15.3205ZM68.5034 13.9525L69.9359 12.5567C69.0805 11.6788 68.4474 10.9109 68.0075 10.2511L66.3434 11.3605L64.6793 12.4699C65.2955 13.3941 66.1024 14.3541 67.071 15.3482L68.5034 13.9525ZM66.3434 11.3605L67.9984 10.2375C67.6086 9.66302 67.1234 8.82114 66.541 7.67952L64.7594 8.58846L62.9779 9.4974C63.5955 10.7078 64.1663 11.7139 64.6885 12.4835L66.3434 11.3605ZM64.7594 8.58846L66.541 7.67952C65.9706 6.56151 65.4574 5.42117 65.0014 4.25829L63.1394 4.98846L61.2775 5.71864C61.7815 7.00376 62.3483 8.2634 62.9779 9.4974L64.7594 8.58846ZM63.1394 4.98846L65.0121 4.28621C65.0147 4.29319 65.0198 4.3087 65.0242 4.33188C65.0286 4.3553 65.0314 4.38266 65.0314 4.41246H63.0314H61.0314C61.0314 4.86018 61.1163 5.28953 61.2668 5.69071L63.1394 4.98846ZM63.0314 4.41246H65.0314C65.0314 4.42424 65.0298 4.44021 65.0257 4.45653C65.0217 4.47253 65.0179 4.47877 65.0206 4.47359C65.0269 4.46159 65.0697 4.3865 65.2125 4.26161L63.8954 2.75646L62.5784 1.25131C61.6967 2.02286 61.0314 3.08476 61.0314 4.41246H63.0314ZM63.8954 2.75646L65.1818 4.28787C65.4056 4.09987 65.6529 4.00046 66.0194 4.00046V2.00046V0.000460148C64.754 0.000460148 63.5853 0.405048 62.6091 1.22505L63.8954 2.75646ZM66.0194 2.00046V4.00046C66.1267 4.00046 66.1789 4.01484 66.1933 4.01953C66.2008 4.02199 66.2026 4.02324 66.2009 4.02229C66.1991 4.02131 66.1978 4.02034 66.1983 4.02069L67.4594 2.46846L68.7206 0.916233C67.9232 0.268355 66.9757 0.000460148 66.0194 0.000460148V2.00046ZM67.4594 2.46846L66.2594 4.06846C66.2909 4.09204 66.4649 4.24875 66.7014 4.74009L68.5034 3.87246L70.3054 3.00483C69.918 2.20017 69.396 1.42087 68.6594 0.868459L67.4594 2.46846ZM68.5034 3.87246L66.7036 4.74455C67.8374 7.08444 68.7642 8.88012 69.4759 10.1002L71.2034 9.09246L72.931 8.08472C72.2987 7.0008 71.4255 5.31648 70.3033 3.00037L68.5034 3.87246ZM71.2034 9.09246L69.4931 10.1291C69.9895 10.9482 70.4486 11.6362 70.8615 12.1409C71.0644 12.3889 71.3068 12.6557 71.5829 12.878C71.7896 13.0443 72.3507 13.4685 73.1474 13.4685V11.4685V9.46846C73.4925 9.46846 73.7452 9.56751 73.8697 9.62707C73.9985 9.68865 74.0736 9.74797 74.091 9.76194C74.1211 9.78619 74.0785 9.75604 73.9574 9.60798C73.7223 9.3207 73.3774 8.82069 72.9138 8.05586L71.2034 9.09246ZM73.1474 11.4685V13.4685C73.9957 13.4685 74.5694 12.9843 74.7545 12.8214C75.018 12.5895 75.2438 12.3152 75.4283 12.0667C75.8054 11.5586 76.2208 10.8687 76.6672 10.0502L74.9114 9.09246L73.1557 8.13476C72.7381 8.9002 72.4275 9.39829 72.2166 9.68226C72.1071 9.82973 72.0734 9.85241 72.1119 9.81853C72.1332 9.79982 72.2152 9.7294 72.3551 9.65667C72.4908 9.58618 72.7677 9.46846 73.1474 9.46846V11.4685ZM74.9114 9.09246L76.6833 10.02L79.4913 4.65603L77.7194 3.72846L75.9476 2.80089L73.1396 8.16489L74.9114 9.09246ZM77.7194 3.72846L79.478 4.68102C79.7457 4.18687 79.9204 3.98903 79.9709 3.94277L78.6194 2.46846L77.268 0.994151C76.7425 1.47589 76.3172 2.11805 75.9609 2.77589L77.7194 3.72846ZM78.6194 2.46846L79.9113 3.99523C79.8027 4.08714 79.7239 4.10532 79.7438 4.09987C79.7536 4.09716 79.7833 4.08999 79.8374 4.08365C79.8914 4.07734 79.9645 4.07246 80.0594 4.07246V2.07246V0.0724592C79.1997 0.0724592 78.1596 0.237623 77.3276 0.94169L78.6194 2.46846ZM80.0594 2.07246V4.07246C80.6408 4.07246 80.9396 4.20333 81.0994 4.31651L82.2554 2.68446L83.4115 1.05241C82.4193 0.349589 81.2541 0.0724592 80.0594 0.0724592V2.07246ZM82.2554 2.68446L81.146 4.34856C81.1738 4.36703 81.1792 4.37481 81.1726 4.3677C81.1694 4.3643 81.1641 4.3582 81.1578 4.34934C81.1514 4.34045 81.1449 4.3301 81.1387 4.31864C81.1326 4.30717 81.1278 4.29618 81.1241 4.28633C81.1204 4.27652 81.1185 4.26932 81.1176 4.26557C81.1158 4.25772 81.1194 4.26866 81.1194 4.30446H83.1194H85.1194C85.1194 2.94411 84.5009 1.7777 83.3648 1.02036L82.2554 2.68446ZM83.1194 4.30446H81.1194C81.1194 4.27654 81.1207 4.25562 81.1217 4.2427C81.1227 4.22969 81.1237 4.22253 81.1238 4.22187C81.1238 4.22154 81.1213 4.2387 81.1123 4.27618C81.0936 4.35374 81.0567 4.47795 80.9908 4.65705L82.8674 5.34846L84.7441 6.03987C84.9277 5.54174 85.1194 4.91613 85.1194 4.30446H83.1194ZM82.8674 5.34846L81.005 4.61966C80.8296 5.06787 80.3932 5.99304 79.6445 7.46636L81.4274 8.37246L83.2104 9.27856C83.9497 7.82388 84.4733 6.73305 84.7299 6.07726L82.8674 5.34846ZM81.4274 8.37246L79.6386 7.47803C78.9253 8.90462 78.3948 9.85583 78.0353 10.3951L79.6994 11.5045L81.3635 12.6139C81.8681 11.8571 82.4896 10.7203 83.2163 9.26689L81.4274 8.37246ZM79.6994 11.5045L78.0215 10.4161C77.5507 11.1419 76.9217 11.88 76.1125 12.6254L77.4674 14.0965L78.8224 15.5676C79.8372 14.6329 80.6962 13.643 81.3774 12.5928L79.6994 11.5045ZM77.4674 14.0965L76.1142 12.6238C75.7048 13 75.4161 13.2283 75.233 13.3504C75.1422 13.411 75.116 13.4192 75.1446 13.4069C75.1555 13.4022 75.3376 13.3205 75.6314 13.3205V15.3205V17.3205C76.4488 17.3205 77.1257 16.896 77.4518 16.6786C77.8808 16.3926 78.3421 16.0089 78.8207 15.5691L77.4674 14.0965ZM75.6314 15.3205L73.6316 15.3434L73.7396 24.7394L75.7394 24.7165L77.7393 24.6935L77.6313 15.2975L75.6314 15.3205ZM75.7394 24.7165H73.7394C73.7394 24.9222 73.7098 25.0377 73.6899 25.0921C73.6728 25.139 73.657 25.1585 73.6412 25.1742L75.0554 26.5885L76.4697 28.0027C77.3828 27.0895 77.7394 25.9103 77.7394 24.7165H75.7394ZM75.0554 26.5885L73.6412 25.1742C73.6629 25.1525 73.6682 25.1614 73.6113 25.1807C73.5449 25.2033 73.4012 25.2365 73.1474 25.2365V27.2365V29.2365C74.3147 29.2365 75.5399 28.9324 76.4697 28.0027L75.0554 26.5885Z" fill="black" mask="url(#path-1-outside-1_252_145)"/>
</svg>
